<svg width="125" height="735" viewBox="0 0 125 735" fill="none" xmlns="http://www.w3.org/2000/svg">
<mask id="mask0" mask-type="alpha" maskUnits="userSpaceOnUse" x="0" y="0" width="125" height="735">
<rect width="125" height="735" fill="url(#paint0_linear)"/>
</mask>
<g mask="url(#mask0)">
<path d="M74.8381 134.784C79.2711 125.236 66.8902 118.134 73.8761 114.557C80.8611 110.979 84.2221 118.904 87.7301 129.003C91.2401 139.102 88.4211 150.191 81.4351 153.766C74.4501 157.345 68.9741 147.424 74.8381 134.784Z" fill="white"/>
<path d="M77.9221 160.873C77.9071 163.663 76.3481 165.012 74.4361 164.993C72.5251 164.976 70.9831 163.602 71.0001 160.812C71.0231 156.82 72.5841 154.871 74.4951 154.887C76.4061 154.902 77.9471 156.879 77.9221 160.873Z" fill="white"/>
<path d="M83.7401 159.517C83.9841 161.504 83.0011 162.67 81.6401 162.916C80.2811 163.164 79.0591 162.394 78.8161 160.408C78.4681 157.568 79.3981 155.973 80.7581 155.727C82.1181 155.483 83.3921 156.678 83.7401 159.517Z" fill="white"/>
<path d="M88.0172 156.072C88.4102 157.766 87.6592 158.914 86.4972 159.309C85.3352 159.704 84.2042 159.199 83.8112 157.503C83.2502 155.081 83.9162 153.57 85.0782 153.175C86.2402 152.779 87.4572 153.65 88.0172 156.072Z" fill="white"/>
<path d="M90.3272 151.295C90.7742 152.543 90.2992 153.518 89.4432 153.97C88.5872 154.421 87.6752 154.178 87.2272 152.929C86.5892 151.142 86.9662 149.901 87.8222 149.447C88.6772 148.995 89.6852 149.508 90.3272 151.295Z" fill="white"/>
<path d="M91.7391 147.141C92.0961 148.139 91.7181 148.918 91.0321 149.278C90.3481 149.641 89.6201 149.447 89.2611 148.448C88.7501 147.022 89.0531 146.028 89.7381 145.665C90.4211 145.305 91.2271 145.715 91.7391 147.141Z" fill="white"/>
<path d="M74.8381 284.464C79.2711 274.916 66.8902 267.814 73.8761 264.237C80.8611 260.659 84.2221 268.584 87.7301 278.683C91.2401 288.782 88.4211 299.87 81.4351 303.446C74.4501 307.025 68.9741 297.104 74.8381 284.464Z" fill="white"/>
<path d="M77.9221 310.553C77.9071 313.343 76.3481 314.692 74.4361 314.673C72.5251 314.656 70.9831 313.282 71.0001 310.492C71.0231 306.499 72.5841 304.551 74.4951 304.567C76.4061 304.582 77.9471 306.559 77.9221 310.553Z" fill="white"/>
<path d="M83.7401 309.197C83.9841 311.184 83.0011 312.35 81.6401 312.595C80.2811 312.843 79.0591 312.073 78.8161 310.088C78.4681 307.248 79.3981 305.653 80.7581 305.407C82.1181 305.163 83.3921 306.358 83.7401 309.197Z" fill="white"/>
<path d="M88.0172 305.752C88.4102 307.445 87.6592 308.594 86.4972 308.989C85.3352 309.384 84.2042 308.879 83.8112 307.183C83.2502 304.761 83.9162 303.249 85.0782 302.854C86.2402 302.459 87.4572 303.33 88.0172 305.752Z" fill="white"/>
<path d="M90.3272 300.974C90.7742 302.223 90.2992 303.198 89.4432 303.649C88.5872 304.101 87.6752 303.858 87.2272 302.609C86.5892 300.822 86.9662 299.58 87.8222 299.127C88.6772 298.675 89.6852 299.188 90.3272 300.974Z" fill="white"/>
<path d="M91.7391 296.82C92.0961 297.819 91.7181 298.597 91.0321 298.958C90.3481 299.321 89.6201 299.127 89.2611 298.128C88.7501 296.702 89.0531 295.708 89.7381 295.345C90.4211 294.985 91.2271 295.394 91.7391 296.82Z" fill="white"/>
<path d="M81.8381 417.38C86.2711 407.831 73.8901 400.729 80.8761 397.153C87.8611 393.575 91.2221 401.499 94.7301 411.598C98.2401 421.698 95.4211 432.786 88.4351 436.361C81.4501 439.941 75.9741 430.02 81.8381 417.38Z" fill="white"/>
<path d="M84.9221 443.468C84.9071 446.258 83.3481 447.608 81.4361 447.589C79.5251 447.572 77.9831 446.197 78.0001 443.407C78.0231 439.415 79.5841 437.467 81.4951 437.482C83.4061 437.498 84.9471 439.475 84.9221 443.468Z" fill="white"/>
<path d="M90.7401 442.113C90.9841 444.099 90.0011 445.266 88.6401 445.511C87.2811 445.759 86.0591 444.989 85.8161 443.004C85.4681 440.163 86.3981 438.568 87.7581 438.323C89.1181 438.079 90.3921 439.274 90.7401 442.113Z" fill="white"/>
<path d="M95.0171 438.668C95.4101 440.361 94.6591 441.509 93.4971 441.904C92.3351 442.3 91.2041 441.794 90.8111 440.099C90.2501 437.676 90.9161 436.165 92.0781 435.77C93.2401 435.375 94.4571 436.245 95.0171 438.668Z" fill="white"/>
<path d="M97.3271 433.89C97.7741 435.139 97.2991 436.114 96.4431 436.565C95.5871 437.016 94.6751 436.773 94.2271 435.524C93.5891 433.738 93.9661 432.496 94.8221 432.042C95.6771 431.591 96.6851 432.103 97.3271 433.89Z" fill="white"/>
<path d="M98.7391 429.736C99.0961 430.735 98.7181 431.513 98.0321 431.873C97.3481 432.236 96.6201 432.042 96.2611 431.044C95.7501 429.618 96.0531 428.624 96.7381 428.261C97.4211 427.9 98.2271 428.31 98.7391 429.736Z" fill="white"/>
<path d="M81.8381 559.875C86.2711 550.326 73.8901 543.224 80.8761 539.648C87.8611 536.07 91.2221 543.994 94.7301 554.094C98.2401 564.193 95.4211 575.281 88.4351 578.857C81.4501 582.436 75.9741 572.515 81.8381 559.875Z" fill="white"/>
<path d="M84.9221 585.963C84.9071 588.753 83.3481 590.103 81.4361 590.084C79.5251 590.067 77.9831 588.692 78.0001 585.902C78.0231 581.91 79.5841 579.962 81.4951 579.977C83.4061 579.993 84.9471 581.97 84.9221 585.963Z" fill="white"/>
<path d="M90.7401 584.608C90.9841 586.594 90.0011 587.761 88.6401 588.006C87.2811 588.254 86.0591 587.484 85.8161 585.499C85.4681 582.658 86.3981 581.063 87.7581 580.818C89.1181 580.574 90.3921 581.769 90.7401 584.608Z" fill="white"/>
<path d="M95.0171 581.163C95.4101 582.856 94.6591 584.004 93.4971 584.4C92.3351 584.795 91.2041 584.289 90.8111 582.594C90.2501 580.171 90.9161 578.66 92.0781 578.265C93.2401 577.87 94.4571 578.74 95.0171 581.163Z" fill="white"/>
<path d="M97.3271 576.385C97.7741 577.634 97.2991 578.609 96.4431 579.06C95.5871 579.512 94.6751 579.269 94.2271 578.02C93.5891 576.233 93.9661 574.991 94.8221 574.537C95.6771 574.086 96.6851 574.598 97.3271 576.385Z" fill="white"/>
<path d="M98.7391 572.231C99.0961 573.23 98.7181 574.008 98.0321 574.369C97.3481 574.731 96.6201 574.537 96.2611 573.539C95.7501 572.113 96.0531 571.119 96.7381 570.756C97.4211 570.395 98.2271 570.805 98.7391 572.231Z" fill="white"/>
<path d="M81.8381 702.37C86.2711 692.822 73.8901 685.72 80.8761 682.143C87.8611 678.565 91.2221 686.49 94.7301 696.589C98.2401 706.688 95.4211 717.776 88.4351 721.352C81.4501 724.931 75.9741 715.01 81.8381 702.37Z" fill="white"/>
<path d="M84.9221 728.459C84.9071 731.249 83.3481 732.598 81.4361 732.579C79.5251 732.562 77.9831 731.187 78.0001 728.397C78.0231 724.405 79.5841 722.457 81.4951 722.473C83.4061 722.488 84.9471 724.465 84.9221 728.459Z" fill="white"/>
<path d="M90.7401 727.103C90.9841 729.09 90.0011 730.256 88.6401 730.501C87.2811 730.749 86.0591 729.979 85.8161 727.994C85.4681 725.154 86.3981 723.559 87.7581 723.313C89.1181 723.069 90.3921 724.264 90.7401 727.103Z" fill="white"/>
<path d="M95.0171 723.658C95.4101 725.351 94.6591 726.5 93.4971 726.895C92.3351 727.29 91.2041 726.785 90.8111 725.089C90.2501 722.667 90.9161 721.155 92.0781 720.76C93.2401 720.365 94.4571 721.236 95.0171 723.658Z" fill="white"/>
<path d="M97.3271 718.88C97.7741 720.129 97.2991 721.104 96.4431 721.555C95.5871 722.007 94.6751 721.764 94.2271 720.515C93.5891 718.728 93.9661 717.486 94.8221 717.033C95.6771 716.581 96.6851 717.094 97.3271 718.88Z" fill="white"/>
<path d="M98.7391 714.726C99.0961 715.725 98.7181 716.503 98.0321 716.864C97.3481 717.227 96.6201 717.033 96.2611 716.034C95.7501 714.608 96.0531 713.614 96.7381 713.251C97.4211 712.891 98.2271 713.3 98.7391 714.726Z" fill="white"/>
<path d="M44.7518 81.1689C41.8438 70.7919 55.0918 66.5793 48.7698 61.5022C42.4448 56.4238 37.9408 63.46 32.9588 72.6024C27.9778 81.7449 29.0628 93.2726 35.3888 98.3521C41.7118 103.429 48.5998 94.9011 44.7518 81.1689Z" fill="white"/>
<path d="M37.7638 106.119C37.3558 108.864 38.6828 110.54 40.5648 110.952C42.4468 111.364 44.1708 110.355 44.5778 107.61C45.1608 103.68 43.9218 101.416 42.0398 101.004C40.1578 100.591 38.3458 102.189 37.7638 106.119Z" fill="white"/>
<path d="M32.2509 103.487C31.7099 105.384 32.4989 106.752 33.7989 107.297C35.0979 107.844 36.4139 107.36 36.9549 105.463C37.7279 102.752 37.0559 100.975 35.7569 100.43C34.4579 99.8849 33.0229 100.775 32.2509 103.487Z" fill="white"/>
<path d="M28.5678 99.1437C27.9258 100.722 28.4898 102.018 29.5698 102.665C30.6518 103.313 31.8408 103.07 32.4838 101.492C33.4028 99.2347 32.9778 97.6026 31.8968 96.9523C30.8168 96.3045 29.4878 96.8877 28.5678 99.1437Z" fill="white"/>
<path d="M27.0247 93.9312C26.3947 95.058 26.7137 96.1249 27.4877 96.7583C28.2597 97.3942 29.1928 97.3595 29.8228 96.2327C30.7218 94.6209 30.5388 93.3133 29.7648 92.6775C28.9937 92.0416 27.9248 92.3194 27.0247 93.9312Z" fill="white"/>
<path d="M26.2668 89.5342C25.7638 90.4347 26.0198 91.2861 26.6368 91.7938C27.2548 92.3015 27.9978 92.2727 28.5028 91.3723C29.2218 90.0838 29.0728 89.0421 28.4568 88.5319C27.8408 88.0242 26.9858 88.247 26.2668 89.5342Z" fill="white"/>
<path d="M44.7518 214.085C41.8438 203.707 55.0918 199.495 48.7698 194.418C42.4448 189.339 37.9408 196.376 32.9588 205.518C27.9778 214.66 29.0628 226.188 35.3888 231.268C41.7118 236.345 48.5998 227.817 44.7518 214.085Z" fill="white"/>
<path d="M37.7638 239.034C37.3558 241.78 38.6828 243.455 40.5648 243.867C42.4468 244.279 44.1708 243.271 44.5778 240.525C45.1608 236.595 43.9218 234.332 42.0398 233.92C40.1578 233.507 38.3458 235.104 37.7638 239.034Z" fill="white"/>
<path d="M32.2509 236.402C31.7099 238.299 32.4989 239.668 33.7989 240.213C35.0979 240.76 36.4139 240.276 36.9549 238.378C37.7279 235.667 37.0559 233.89 35.7569 233.345C34.4579 232.8 33.0229 233.69 32.2509 236.402Z" fill="white"/>
<path d="M28.5678 232.059C27.9258 233.637 28.4898 234.933 29.5698 235.581C30.6518 236.229 31.8408 235.986 32.4838 234.407C33.4028 232.15 32.9778 230.518 31.8968 229.868C30.8168 229.22 29.4878 229.803 28.5678 232.059Z" fill="white"/>
<path d="M27.0247 226.847C26.3947 227.974 26.7137 229.041 27.4877 229.674C28.2597 230.31 29.1928 230.275 29.8228 229.148C30.7218 227.537 30.5388 226.229 29.7648 225.593C28.9937 224.957 27.9248 225.235 27.0247 226.847Z" fill="white"/>
<path d="M26.2668 222.45C25.7638 223.35 26.0198 224.202 26.6368 224.709C27.2548 225.217 27.9978 225.188 28.5028 224.288C29.2218 222.999 29.0728 221.958 28.4568 221.448C27.8408 220.94 26.9858 221.163 26.2668 222.45Z" fill="white"/>
<path d="M44.7518 350.592C41.8438 340.215 55.0918 336.003 48.7698 330.926C42.4448 325.847 37.9408 332.884 32.9588 342.026C27.9778 351.168 29.0628 362.696 35.3888 367.776C41.7118 372.853 48.5998 364.325 44.7518 350.592Z" fill="white"/>
<path d="M37.7638 375.542C37.3558 378.288 38.6828 379.963 40.5648 380.375C42.4468 380.787 44.1708 379.779 44.5778 377.033C45.1608 373.103 43.9218 370.84 42.0398 370.428C40.1578 370.015 38.3458 371.612 37.7638 375.542Z" fill="white"/>
<path d="M32.2509 372.91C31.7099 374.807 32.4989 376.176 33.7989 376.721C35.0979 377.268 36.4139 376.784 36.9549 374.886C37.7279 372.175 37.0559 370.398 35.7569 369.853C34.4579 369.308 33.0229 370.198 32.2509 372.91Z" fill="white"/>
<path d="M28.5678 368.567C27.9258 370.145 28.4898 371.441 29.5698 372.089C30.6518 372.737 31.8408 372.494 32.4838 370.915C33.4028 368.658 32.9778 367.026 31.8968 366.376C30.8168 365.728 29.4878 366.311 28.5678 368.567Z" fill="white"/>
<path d="M27.0247 363.355C26.3947 364.482 26.7137 365.548 27.4877 366.182C28.2597 366.818 29.1928 366.783 29.8228 365.656C30.7218 364.044 30.5388 362.737 29.7648 362.101C28.9937 361.465 27.9248 361.743 27.0247 363.355Z" fill="white"/>
<path d="M26.2668 358.958C25.7638 359.858 26.0198 360.71 26.6368 361.217C27.2548 361.725 27.9978 361.696 28.5028 360.796C29.2218 359.507 29.0728 358.466 28.4568 357.956C27.8408 357.448 26.9858 357.671 26.2668 358.958Z" fill="white"/>
<path d="M44.7518 487.1C41.8438 476.723 55.0918 472.511 48.7698 467.434C42.4448 462.355 37.9408 469.392 32.9588 478.534C27.9778 487.676 29.0628 499.204 35.3888 504.284C41.7118 509.361 48.5998 500.833 44.7518 487.1Z" fill="white"/>
<path d="M37.7638 512.05C37.3558 514.796 38.6828 516.471 40.5648 516.883C42.4468 517.295 44.1708 516.287 44.5778 513.541C45.1608 509.611 43.9218 507.348 42.0398 506.936C40.1578 506.523 38.3458 508.12 37.7638 512.05Z" fill="white"/>
<path d="M32.2509 509.418C31.7099 511.315 32.4989 512.684 33.7989 513.229C35.0979 513.776 36.4139 513.292 36.9549 511.394C37.7279 508.683 37.0559 506.906 35.7569 506.361C34.4579 505.816 33.0229 506.706 32.2509 509.418Z" fill="white"/>
<path d="M28.5678 505.075C27.9258 506.653 28.4898 507.949 29.5698 508.597C30.6518 509.245 31.8408 509.002 32.4838 507.423C33.4028 505.166 32.9778 503.534 31.8968 502.884C30.8168 502.236 29.4878 502.819 28.5678 505.075Z" fill="white"/>
<path d="M27.0247 499.863C26.3947 500.99 26.7137 502.056 27.4877 502.69C28.2597 503.326 29.1928 503.291 29.8228 502.164C30.7218 500.552 30.5388 499.245 29.7648 498.609C28.9937 497.973 27.9248 498.251 27.0247 499.863Z" fill="white"/>
<path d="M26.2668 495.466C25.7638 496.366 26.0198 497.218 26.6368 497.725C27.2548 498.233 27.9978 498.204 28.5028 497.304C29.2218 496.015 29.0728 494.974 28.4568 494.463C27.8408 493.956 26.9858 494.178 26.2668 495.466Z" fill="white"/>
<path d="M44.7518 623.608C41.8438 613.231 55.0918 609.019 48.7698 603.942C42.4448 598.863 37.9408 605.9 32.9588 615.042C27.9778 624.184 29.0628 635.712 35.3888 640.792C41.7118 645.869 48.5998 637.341 44.7518 623.608Z" fill="white"/>
<path d="M37.7638 648.558C37.3558 651.304 38.6828 652.979 40.5648 653.391C42.4468 653.803 44.1708 652.795 44.5778 650.049C45.1608 646.119 43.9218 643.856 42.0398 643.444C40.1578 643.031 38.3458 644.628 37.7638 648.558Z" fill="white"/>
<path d="M32.2509 645.926C31.7099 647.823 32.4989 649.192 33.7989 649.736C35.0979 650.284 36.4139 649.8 36.9549 647.902C37.7279 645.191 37.0559 643.414 35.7569 642.869C34.4579 642.324 33.0229 643.214 32.2509 645.926Z" fill="white"/>
<path d="M28.5678 641.583C27.9258 643.161 28.4898 644.457 29.5698 645.105C30.6518 645.753 31.8408 645.51 32.4838 643.931C33.4028 641.674 32.9778 640.042 31.8968 639.392C30.8168 638.744 29.4878 639.327 28.5678 641.583Z" fill="white"/>
<path d="M27.0247 636.371C26.3947 637.497 26.7137 638.564 27.4877 639.198C28.2597 639.834 29.1928 639.799 29.8228 638.672C30.7218 637.06 30.5388 635.753 29.7648 635.117C28.9937 634.481 27.9248 634.759 27.0247 636.371Z" fill="white"/>
<path d="M26.2668 631.974C25.7638 632.874 26.0198 633.726 26.6368 634.233C27.2548 634.741 27.9978 634.712 28.5028 633.812C29.2218 632.523 29.0728 631.482 28.4568 630.971C27.8408 630.464 26.9858 630.686 26.2668 631.974Z" fill="white"/>
</g>
<defs>
<linearGradient id="paint0_linear" x1="62.5" y1="8.2717" x2="62.5" y2="735" gradientUnits="userSpaceOnUse">
<stop stop-color="#C4C4C4" stop-opacity="0"/>
<stop offset="0.183866" stop-color="#C4C4C4" stop-opacity="0.03"/>
<stop offset="0.665736" stop-color="#C4C4C4" stop-opacity="0.35"/>
<stop offset="1" stop-color="#C4C4C4" stop-opacity="0.78"/>
</linearGradient>
</defs>
</svg>
