<svg width="340" height="138" viewBox="0 0 340 138" fill="none" xmlns="http://www.w3.org/2000/svg">
<circle cx="69" cy="69" r="69" fill="url(#paint0_radial)"/>
<g clip-path="url(#clip0)">
<path fill-rule="evenodd" clip-rule="evenodd" d="M45.4118 79.3647C49.7894 79.3623 54.0564 79.4869 58.3986 79.5731C59.4866 79.5946 60.5847 79.5799 61.675 79.5865C62.7556 79.593 63.8354 79.6737 64.9514 79.6763C67.1145 79.6813 69.4246 79.7839 71.5674 79.6777L71.5806 66.13C69.4286 66.0433 67.1645 66.1298 65.0088 66.0918C64.1239 66.0762 59.1329 66.0814 58.663 65.8628C58.6683 65.044 58.6505 64.2265 58.6594 63.4009C58.6639 62.9858 58.665 62.5708 58.6692 62.1557L58.7712 60.982C59.1597 60.7958 70.0916 61.0658 71.7614 60.9286L71.7524 56.4229L55.1967 56.4148C55.1203 57.4966 55.1853 58.8175 55.1754 59.9096C55.1651 61.0608 55.1397 62.231 55.116 63.4009C55.1111 63.6489 55.1348 64.002 55.1127 64.2281C55.0288 65.0856 55.0346 65.8797 55.0346 66.774C55.0346 67.8281 54.9482 69.284 55.0447 70.2872C55.7616 70.3872 60.3781 70.3013 61.4963 70.3024C62.4279 70.3033 67.4197 70.2524 67.8705 70.4327C68.0269 70.7349 67.9844 74.7714 67.8682 75.2272C66.7464 75.3271 53.7104 75.2144 52.5605 75.1705C51.3292 75.1236 48.5585 75.2836 47.5972 75.0186C47.0589 74.0652 46.9264 72.0923 46.7436 70.9539C46.6629 70.4518 46.7307 69.8522 46.6813 69.3403C46.4412 66.8536 47.0117 64.336 47.5751 62.0475C47.892 60.7594 48.8654 58.603 49.5494 57.3907C49.7378 57.0567 49.9398 56.6392 50.1558 56.3364C50.8379 55.3801 51.5299 54.4048 52.2752 53.5319L53.1015 52.6946C53.2606 52.533 53.3227 52.4303 53.5111 52.2795L54.8467 51.1177C55.7225 50.3927 56.7582 49.649 57.793 49.0686C58.2044 48.8377 58.4719 48.6927 58.8569 48.4747C60.3162 47.6481 62.043 47.1499 63.6522 46.6837L65.0247 46.3928C65.5087 46.3101 66.0698 46.2786 66.5116 46.19C68.0572 45.8795 71.2239 45.9944 72.787 46.2587C74.5582 46.5582 76.4093 47.0001 77.993 47.7221C78.1476 47.7926 78.1396 47.777 78.2929 47.8325C78.4701 47.8965 78.4003 47.8832 78.574 47.9679C81.0557 49.1774 81.8752 49.6335 84.1495 51.4922C84.4103 51.7054 84.7261 51.9686 85.0431 52.262C85.3187 52.5173 85.6011 52.7962 85.8746 53.0898C86.4425 53.7002 86.9185 54.2305 87.4009 54.8911C88.3577 56.2012 88.5651 56.3929 89.3732 57.8467C89.4753 58.0301 89.5827 58.182 89.6701 58.3666C90.1115 59.2992 90.6156 60.3443 90.8771 61.3366C91.0781 62.098 91.4248 63.0138 91.6156 63.7699C91.9861 65.2382 92.1727 68.5767 92.0442 69.9645C91.9718 70.7461 91.9689 71.4638 91.8354 72.2281C91.7943 72.4632 91.7944 72.7547 91.9693 72.8892C92.1811 73.0522 94.7556 72.9836 95.2019 72.9704C95.3845 72.7223 95.3586 72.5733 95.4701 72.2924C95.7072 71.6939 95.6987 68.4859 95.6759 67.7207C95.6555 67.0341 95.5706 66.5126 95.5503 65.8863C95.5315 65.3148 95.4028 64.8268 95.3174 64.2429C95.1034 62.7792 94.563 60.9978 94.1136 59.6512C93.7832 58.6613 93.3805 57.8485 92.9812 56.9128C92.8145 56.5222 92.5273 56.1505 92.3144 55.6854C91.7132 54.3717 90.0692 52.2529 89.0996 51.1923C88.9457 51.0238 88.8145 50.8978 88.6478 50.6907C88.5549 50.5754 88.5359 50.5377 88.4308 50.435C88.3716 50.3773 88.3663 50.3809 88.3061 50.3208C88.2409 50.2559 88.233 50.237 88.1644 50.1662C87.0429 49.0087 84.8316 47.1074 83.3516 46.3083L82.1735 45.5967C80.4311 44.8054 80.4584 44.5945 78.1382 43.7851C77.4194 43.5343 76.6274 43.3673 75.9088 43.1134C74.8828 42.7509 72.9271 42.4976 71.796 42.4097C71.4695 42.3844 71.1884 42.3917 70.8954 42.3549C69.392 42.1655 67.8007 42.2705 66.2839 42.4408C66.1862 42.4518 66.0117 42.4913 65.8846 42.5142L64.6242 42.7195C64.4759 42.7527 64.3601 42.7425 64.2034 42.7767L62.2252 43.2468C61.7349 43.3788 61.2764 43.5701 60.781 43.7035C60.0527 43.8996 59.3559 44.2179 58.6681 44.5014C57.9325 44.8045 57.3897 45.0539 56.7097 45.4562C55.8981 45.9365 55.0041 46.405 54.2937 46.8906C53.9033 47.1574 53.5364 47.3985 53.1954 47.6988L52.1205 48.5851C51.2537 49.3527 50.474 50.1567 49.6814 50.9535C48.7022 51.938 46.5593 55.0209 46.092 56.0304C45.9671 56.2999 45.8837 56.3041 45.7449 56.6266L44.6076 59.3384C44.501 59.6228 44.4654 59.8515 44.368 60.1039C44.1977 60.5451 44.0936 61.0408 43.9468 61.4696C43.6567 62.3173 43.225 64.5561 43.1635 65.4748L43.0628 66.3732C42.9289 67.3195 43.0196 70.942 43.2255 71.8912C43.3474 72.4534 43.377 73.0179 43.5057 73.5663C43.8902 75.2022 44.1503 76.4526 44.7899 78.0477C44.9018 78.3266 45.111 79.2455 45.4116 79.3652L45.4118 79.3647ZM82.9715 86.82L80.9826 88.1402C80.8446 88.2497 80.9402 88.1409 80.8497 88.2864C80.6765 88.317 80.1351 88.6266 79.9281 88.7528L78.5114 89.4703L75.8911 90.4236C75.6761 90.4913 75.5065 90.4915 75.3003 90.5561C75.0913 90.6215 74.958 90.6762 74.7615 90.7152C73.4728 90.971 73.9376 90.9496 72.284 91.1496C71.2615 91.2733 69.2456 91.4191 68.1699 91.3166C66.7326 91.1798 65.9943 91.1821 64.4423 90.7805C64.0406 90.6765 63.6672 90.6449 63.2629 90.5212C62.8535 90.3961 62.5472 90.285 62.1499 90.1539C61.9199 90.0778 61.8448 90.0183 61.6174 89.9611C60.8057 89.7569 60.5436 89.5194 60.1316 89.3285C59.9635 89.2504 59.781 89.2105 59.6084 89.1262L57.3225 87.8441C56.6205 87.4054 56.2699 87.0602 55.6375 86.6818C55.108 86.3648 53.1453 84.5149 52.6271 83.9252C52.4687 83.7451 52.4029 83.7222 52.2635 83.5781C52.171 83.4822 51.9817 83.2586 51.9076 83.1626C51.1601 82.1942 51.512 82.3084 49.9393 82.298C49.4598 82.2949 48.9907 82.2812 48.5096 82.2854C47.6902 82.2926 47.7337 82.1811 47.17 82.3262C47.1349 82.853 47.4756 83.2178 47.7686 83.6045C48.0104 83.9238 48.2379 84.3058 48.5389 84.6737C48.6908 84.8594 48.8072 84.9734 48.951 85.1561C49.5867 85.9628 50.8877 87.3745 51.6267 88.0555C51.7911 88.2069 51.9236 88.3603 52.1143 88.5219L53.6581 89.7724C53.8642 89.9229 54.0063 90.0088 54.2085 90.1679C55.065 90.8412 56.6986 91.6857 57.6845 92.2209C57.9175 92.3473 58.0916 92.3928 58.3282 92.5289C58.796 92.7981 59.4353 92.9816 59.6187 93.071L61.0196 93.5708C70.0181 95.8691 73.707 95.2543 81.3612 92.1129L84.5589 90.1535C89.3792 86.9337 92.2893 82.5498 94.5393 77.2289C94.6195 77.0137 94.7136 76.8566 94.772 76.6522C94.8037 76.5412 94.8352 76.4278 94.8383 76.2935C94.8428 76.1042 94.8399 76.0639 94.7619 75.9796C94.412 75.6489 79.4922 75.8908 77.0001 75.64L76.9849 56.4294L73.0243 56.4173C72.9678 58.354 73.0223 60.3555 73.0223 62.2769C73.0223 64.5757 72.9269 79.6703 73.0797 79.8246C73.151 79.8805 73.0954 79.8584 73.238 79.8767L76.9852 79.8909C78.304 79.9082 79.7322 79.8505 81.0334 79.9186C83.5391 80.0497 86.3363 80.0517 88.9045 80.0878C88.8152 80.8044 86.7173 83.3219 86.2378 83.7782C85.8655 84.1323 85.4049 84.7902 84.6921 85.3758L82.9719 86.8204L82.9715 86.82Z" fill="#EF7F1A"/>
<path d="M115.719 89.2871C115.067 89.2871 114.448 89.1675 113.862 88.9282C113.277 88.6889 112.765 88.3533 112.32 87.9247C111.875 87.4894 111.527 86.9876 111.28 86.4162C111.032 85.8447 110.908 85.2364 110.908 84.5953C110.908 83.9407 111.032 83.3193 111.277 82.7312C111.521 82.1431 111.865 81.6313 112.31 81.1895C112.749 80.7476 113.26 80.4021 113.849 80.1561C114.438 79.9101 115.06 79.7872 115.719 79.7872C116.348 79.7872 116.943 79.8968 117.508 80.1162C118.074 80.3389 118.562 80.6545 118.974 81.0633C119.184 81.2893 119.288 81.5252 119.288 81.7744C119.288 82.0203 119.188 82.2264 118.984 82.3959C118.9 82.4657 118.803 82.5221 118.699 82.5621C118.595 82.5985 118.498 82.6185 118.415 82.6185C118.271 82.6185 118.134 82.5852 118.003 82.5121L117.318 82.027C117.037 81.8441 116.755 81.7179 116.478 81.6448C116.2 81.575 115.896 81.5385 115.564 81.5385C115.163 81.5518 114.788 81.6415 114.437 81.8077C114.083 81.9738 113.775 82.1931 113.514 82.4723C113.253 82.7514 113.049 83.0705 112.902 83.4294C112.754 83.7848 112.681 84.1537 112.681 84.5392C112.681 84.9281 112.754 85.3035 112.902 85.6658C113.049 86.0313 113.256 86.347 113.524 86.6194C113.798 86.9119 114.116 87.1411 114.474 87.304C114.835 87.4635 115.223 87.5466 115.642 87.5466C115.963 87.5466 116.257 87.5101 116.525 87.4403C116.792 87.3671 117.057 87.2409 117.318 87.0581L118.003 86.5829C118.147 86.503 118.288 86.4666 118.425 86.4666C118.508 86.4666 118.605 86.4833 118.709 86.523C118.813 86.5629 118.907 86.6161 118.984 86.6891C119.181 86.872 119.278 87.078 119.278 87.3107C119.278 87.4369 119.251 87.5599 119.198 87.6861C119.147 87.8125 119.071 87.9254 118.974 88.0217C118.569 88.4237 118.08 88.7362 117.515 88.9588C116.946 89.1781 116.347 89.2878 115.719 89.2878V89.2871ZM129.301 89.2972C128.652 89.2972 128.039 89.1774 127.461 88.9315C126.882 88.6889 126.374 88.3466 125.929 87.9047C125.484 87.4694 125.136 86.961 124.889 86.383C124.641 85.8015 124.517 85.19 124.517 84.5455C124.517 83.9042 124.641 83.2927 124.889 82.7113C125.136 82.1298 125.484 81.6214 125.929 81.1796C126.374 80.7377 126.882 80.3954 127.461 80.1529C128.04 79.9069 128.652 79.7872 129.301 79.7872C129.953 79.7872 130.572 79.9101 131.157 80.1561C131.743 80.4021 132.251 80.7444 132.689 81.1796C133.127 81.6216 133.469 82.13 133.713 82.708C133.96 83.2862 134.081 83.8977 134.081 84.5455C134.081 85.1969 133.96 85.8082 133.713 86.3862C133.469 86.9646 133.127 87.4696 132.689 87.9047C132.251 88.34 131.742 88.6823 131.157 88.9282C130.572 89.1742 129.953 89.2972 129.301 89.2972ZM129.301 87.5759C129.726 87.5759 130.12 87.4962 130.492 87.34C130.86 87.1837 131.184 86.9646 131.465 86.6787C131.746 86.3995 131.964 86.0773 132.117 85.7116C132.271 85.3429 132.348 84.9574 132.348 84.5453C132.348 84.1367 132.271 83.7512 132.117 83.3823C131.964 83.0167 131.746 82.6944 131.465 82.4152C131.184 82.1361 130.86 81.9168 130.492 81.764C130.12 81.6077 129.726 81.5279 129.301 81.5279C128.882 81.5279 128.488 81.6077 128.12 81.764C127.748 81.9168 127.424 82.1361 127.143 82.4152C126.862 82.6944 126.644 83.0167 126.487 83.3823C126.33 83.7512 126.25 84.1367 126.25 84.5453C126.25 84.9574 126.33 85.3429 126.487 85.7116C126.644 86.0773 126.862 86.3995 127.143 86.6787C127.424 86.9646 127.748 87.1837 128.12 87.34C128.488 87.4962 128.882 87.5759 129.301 87.5759ZM140.34 89.1808C140.093 89.1808 139.885 89.101 139.721 88.9381C139.537 88.7754 139.447 88.5726 139.447 88.3333V84.3725C139.447 83.7478 139.561 83.1563 139.792 82.5982C140.019 82.0432 140.34 81.5515 140.752 81.1297C141.17 80.7075 141.652 80.3785 142.2 80.1426C142.752 79.9067 143.334 79.787 143.956 79.787C144.582 79.787 145.174 79.9067 145.726 80.1426C146.278 80.3785 146.766 80.7075 147.191 81.1297C147.602 81.5516 147.92 82.0434 148.151 82.5982C148.378 83.1564 148.492 83.7479 148.492 84.3725V88.3333C148.492 88.5793 148.412 88.7821 148.248 88.9415C148.084 89.101 147.883 89.1808 147.639 89.1808C147.398 89.1808 147.194 89.101 147.023 88.9415C146.853 88.7821 146.769 88.5793 146.769 88.3333V84.3925C146.762 84.0004 146.689 83.6314 146.548 83.2825C146.408 82.9303 146.211 82.6246 145.953 82.3654C145.692 82.0996 145.391 81.8936 145.046 81.744C144.705 81.5944 144.341 81.518 143.956 81.518C143.564 81.518 143.2 81.5912 142.862 81.7339C142.527 81.8769 142.23 82.0797 141.975 82.3454C141.721 82.6047 141.524 82.9103 141.386 83.2627C141.249 83.6115 141.182 83.9804 141.182 84.3725V88.3333C141.182 88.5793 141.102 88.7821 140.942 88.9415C140.781 89.101 140.58 89.1808 140.339 89.1808H140.34ZM155.026 89.1808C154.799 89.1808 154.608 89.101 154.461 88.9381C154.31 88.7754 154.233 88.5627 154.233 88.3035C154.233 88.0509 154.307 87.8482 154.454 87.6954C154.601 87.5426 154.792 87.466 155.026 87.466H158.947C159.09 87.466 159.234 87.4428 159.378 87.393C159.522 87.3464 159.652 87.2733 159.77 87.1737C160.034 86.961 160.164 86.6785 160.164 86.3296C160.164 85.984 160.04 85.7215 159.79 85.5387C159.549 85.3693 159.271 85.2796 158.957 85.2663H157.134C156.756 85.2663 156.401 85.1931 156.066 85.0435C155.732 84.8941 155.441 84.6847 155.183 84.4189C154.936 84.1663 154.745 83.8706 154.604 83.5282C154.467 83.1893 154.4 82.8337 154.4 82.4615C154.4 82.0994 154.471 81.7537 154.615 81.4249C154.758 81.0991 154.956 80.81 155.203 80.564C155.451 80.3183 155.742 80.1255 156.076 79.9893C156.411 79.853 156.762 79.7865 157.134 79.7865H160.536C160.783 79.7865 160.991 79.8596 161.154 80.0092C161.315 80.1588 161.399 80.3647 161.399 80.6239C161.399 80.8699 161.318 81.0791 161.161 81.2453C161.001 81.4215 160.807 81.5079 160.586 81.5079H157.144C156.869 81.5079 156.632 81.611 156.428 81.8102C156.234 82.0196 156.133 82.2555 156.133 82.5214C156.133 82.8204 156.237 83.0597 156.438 83.2426C156.649 83.4353 156.883 83.5349 157.144 83.5349H159.114C159.499 83.5349 159.867 83.6081 160.211 83.7577C160.559 83.9071 160.857 84.1165 161.104 84.3822C161.352 84.6415 161.546 84.9439 161.683 85.2929C161.82 85.6384 161.887 85.9973 161.887 86.3662C161.887 86.7517 161.82 87.1106 161.683 87.4529C161.546 87.795 161.349 88.0908 161.094 88.3434C160.84 88.6093 160.539 88.8153 160.198 88.9615C159.853 89.1077 159.485 89.1808 159.094 89.1808H155.026ZM172.017 89.2972C171.391 89.2972 170.799 89.1808 170.247 88.9415C169.695 88.7057 169.21 88.3766 168.792 87.9545C168.374 87.5325 168.049 87.0408 167.818 86.4827C167.584 85.9243 167.471 85.3395 167.471 84.7217V80.6609C167.471 80.4218 167.554 80.219 167.718 80.0529C167.885 79.89 168.089 79.8069 168.334 79.8069C168.568 79.8069 168.769 79.89 168.939 80.0529C169.11 80.219 169.194 80.4218 169.194 80.6609V84.7715C169.2 85.1535 169.277 85.5158 169.421 85.8547C169.565 86.197 169.765 86.496 170.026 86.7587C170.284 87.0178 170.578 87.2172 170.92 87.3601C171.261 87.503 171.626 87.576 172.017 87.576C172.402 87.576 172.76 87.503 173.084 87.3567C173.412 87.2105 173.693 87.0045 173.927 86.7388C174.158 86.4763 174.335 86.1739 174.462 85.8215C174.589 85.4727 174.653 85.1005 174.653 84.7116V80.6609C174.653 80.4351 174.743 80.2357 174.917 80.0596C174.998 79.9797 175.091 79.92 175.198 79.8735C175.305 79.8303 175.419 79.8069 175.536 79.8069C175.784 79.8069 175.988 79.89 176.148 80.0529C176.309 80.219 176.389 80.4218 176.389 80.6609V84.7217C176.389 85.3463 176.282 85.9346 176.065 86.4892C175.851 87.0442 175.546 87.5327 175.155 87.9545C174.753 88.3766 174.288 88.7057 173.753 88.9415C173.218 89.1808 172.639 89.2972 172.017 89.2972H172.017ZM186.833 88.3434C186.833 88.5893 186.756 88.792 186.599 88.9514C186.441 89.1109 186.237 89.1907 185.99 89.1907H185.98H185.97C185.511 89.1907 185.087 89.1109 184.692 88.9581C184.297 88.802 183.952 88.576 183.658 88.2835C183.357 87.9944 183.126 87.6489 182.962 87.2468C182.798 86.8481 182.715 86.4094 182.715 85.9275V77.2848C182.715 77.0389 182.798 76.8329 182.962 76.6667C183.126 76.5006 183.324 76.4175 183.558 76.4175C183.802 76.4175 184.009 76.5006 184.187 76.6601C184.364 76.8363 184.451 77.0455 184.451 77.2848V85.9275C184.451 86.4293 184.588 86.8148 184.859 87.0872C185.13 87.3597 185.501 87.496 185.98 87.496C186.227 87.496 186.431 87.5791 186.592 87.7386C186.753 87.9015 186.833 88.1041 186.833 88.3434ZM196.979 89.2972C196.32 89.2972 195.701 89.1808 195.119 88.9415C194.537 88.7057 194.025 88.3732 193.591 87.9446C193.146 87.5093 192.798 87.0075 192.55 86.4362C192.303 85.8646 192.179 85.2531 192.179 84.6054V77.8399C192.179 77.6007 192.266 77.3913 192.443 77.2153C192.614 77.0491 192.815 76.9627 193.052 76.9627C193.169 76.9627 193.283 76.9859 193.393 77.0324C193.504 77.0756 193.604 77.1389 193.688 77.2153C193.865 77.3913 193.952 77.6007 193.952 77.8399V79.7473H197.843C198.083 79.7473 198.291 79.8336 198.461 80.0063C198.629 80.1791 198.716 80.3852 198.716 80.6245C198.716 80.8571 198.632 81.0531 198.465 81.2127C198.297 81.3722 198.09 81.4518 197.843 81.4518H193.952V84.6253C193.952 85.034 194.029 85.4195 194.183 85.7783C194.337 86.1372 194.554 86.4563 194.835 86.7287C195.109 87.0012 195.431 87.2105 195.799 87.3601C196.17 87.5097 196.561 87.5861 196.98 87.5861C197.779 87.5861 198.431 87.3502 198.94 86.8849C199.15 86.6888 199.368 86.5924 199.599 86.5924C199.799 86.5924 199.984 86.6656 200.147 86.8152C200.305 86.9714 200.382 87.164 200.382 87.39C200.382 87.5196 200.355 87.6524 200.298 87.7855C200.241 87.9184 200.164 88.0314 200.067 88.1311C199.244 88.9086 198.214 89.2975 196.98 89.2975L196.979 89.2972ZM206.748 78.6374C206.477 78.6374 206.246 78.541 206.048 78.3451C205.854 78.1523 205.757 77.9231 205.757 77.6638C205.757 77.3979 205.854 77.1687 206.048 76.9726C206.239 76.7832 206.473 76.6901 206.748 76.6901C207.009 76.6901 207.239 76.7832 207.444 76.9726C207.638 77.1554 207.735 77.3846 207.735 77.6638C207.735 77.9362 207.638 78.1656 207.444 78.3451C207.233 78.541 207.002 78.6374 206.748 78.6374ZM206.748 89.2506C206.503 89.2506 206.296 89.1675 206.125 89.0014C205.951 88.8351 205.865 88.6325 205.865 88.3932V80.6543C205.865 80.4051 205.951 80.2025 206.129 80.0396C206.299 79.8702 206.507 79.787 206.754 79.787C206.992 79.787 207.189 79.8702 207.353 80.0396C207.517 80.2091 207.597 80.4118 207.597 80.6543V88.3932C207.597 88.6325 207.517 88.8351 207.35 89.0014C207.183 89.1675 206.982 89.2506 206.748 89.2506ZM214.445 89.1808C214.198 89.1808 213.99 89.101 213.826 88.9381C213.643 88.7754 213.552 88.5726 213.552 88.3333V84.3725C213.552 83.7478 213.666 83.1563 213.897 82.5982C214.124 82.0432 214.445 81.5515 214.857 81.1297C215.275 80.7075 215.757 80.3785 216.305 80.1426C216.857 79.9067 217.439 79.787 218.061 79.787C218.687 79.787 219.279 79.9067 219.831 80.1426C220.383 80.3785 220.871 80.7075 221.296 81.1297C221.707 81.5516 222.025 82.0434 222.256 82.5982C222.484 83.1564 222.597 83.7479 222.597 84.3725V88.3333C222.597 88.5793 222.517 88.7821 222.353 88.9415C222.189 89.101 221.988 89.1808 221.744 89.1808C221.503 89.1808 221.299 89.101 221.129 88.9415C220.958 88.7821 220.874 88.5793 220.874 88.3333V84.3925C220.868 84.0004 220.794 83.6314 220.654 83.2825C220.513 82.9303 220.316 82.6246 220.058 82.3654C219.797 82.0996 219.496 81.8936 219.152 81.744C218.81 81.5944 218.446 81.518 218.061 81.518C217.67 81.518 217.305 81.5912 216.967 81.7339C216.632 81.8769 216.335 82.0797 216.081 82.3454C215.826 82.6047 215.629 82.9103 215.492 83.2627C215.355 83.6115 215.288 83.9804 215.288 84.3725V88.3333C215.288 88.5793 215.207 88.7821 215.047 88.9415C214.886 89.101 214.685 89.1808 214.445 89.1808H214.445ZM230.847 93.434C230.606 93.434 230.395 93.3475 230.222 93.1715C230.135 93.0951 230.068 92.9985 230.014 92.889C229.964 92.7793 229.937 92.6697 229.937 92.56C229.937 92.2608 230.104 91.9983 230.436 91.7691C230.717 91.583 231.095 91.4268 231.573 91.3038C231.764 91.2572 231.948 91.2274 232.125 91.2141C232.306 91.2008 232.527 91.1941 232.787 91.1941H233.239C233.336 91.2008 233.493 91.2042 233.711 91.2042C235.259 91.2042 236.032 90.6292 236.032 89.473C236.032 89.2204 235.999 89.0045 235.935 88.8317C235.908 88.7652 235.872 88.6954 235.825 88.6257L235.718 88.4595C234.915 89.0178 234.012 89.297 233.015 89.297C232.366 89.297 231.754 89.1772 231.175 88.9313C230.596 88.6888 230.088 88.3464 229.643 87.9045C229.198 87.4692 228.85 86.9608 228.603 86.3828C228.355 85.8013 228.231 85.1899 228.231 84.5453C228.231 83.904 228.355 83.2925 228.603 82.7111C228.85 82.1297 229.198 81.6212 229.643 81.1795C230.088 80.7375 230.597 80.3952 231.175 80.1527C231.754 79.9067 232.366 79.787 233.015 79.787C233.667 79.787 234.286 79.91 234.871 80.1559C235.457 80.4019 235.965 80.7442 236.403 81.1795C236.842 81.6214 237.183 82.1298 237.427 82.7079C237.675 83.2861 237.795 83.8975 237.795 84.5453C237.795 85.5023 237.521 86.3894 236.972 87.2136C237.484 87.7585 237.738 88.5063 237.738 89.453C237.738 89.998 237.645 90.4899 237.464 90.9218C237.28 91.357 237.022 91.7292 236.688 92.0316C236.377 92.3239 236.012 92.5467 235.601 92.6963C235.189 92.8457 234.758 92.9189 234.306 92.9189C234.058 92.9189 233.804 92.8989 233.543 92.859C233.249 92.8291 232.988 92.8124 232.757 92.8124C232.208 92.8124 231.747 92.9521 231.365 93.2312C231.221 93.3674 231.051 93.434 230.847 93.434H230.847ZM233.015 87.5757C233.44 87.5757 233.838 87.496 234.209 87.3398C234.58 87.1836 234.908 86.9644 235.189 86.6785C235.47 86.3993 235.688 86.0771 235.842 85.7114C235.996 85.3427 236.072 84.9572 236.072 84.5451C236.072 84.1365 235.996 83.751 235.842 83.3821C235.688 83.0166 235.47 82.6942 235.189 82.415C234.908 82.1359 234.58 81.9166 234.209 81.7638C233.838 81.6075 233.44 81.5277 233.015 81.5277C232.597 81.5277 232.202 81.6075 231.834 81.7638C231.462 81.9166 231.138 82.1359 230.857 82.415C230.576 82.6942 230.359 83.0166 230.201 83.3821C230.044 83.751 229.964 84.1365 229.964 84.5451C229.964 84.9572 230.044 85.3427 230.201 85.7114C230.359 86.0771 230.576 86.3993 230.857 86.6785C231.138 86.9644 231.462 87.1836 231.834 87.3398C232.202 87.496 232.597 87.5757 233.015 87.5757ZM257.405 89.1807C257.177 89.1807 256.987 89.1008 256.839 88.9379C256.689 88.7752 256.612 88.5625 256.612 88.3033C256.612 88.0507 256.685 87.8481 256.833 87.6952C256.98 87.5424 257.17 87.4658 257.405 87.4658H261.325C261.469 87.4658 261.613 87.4426 261.757 87.3928C261.901 87.3463 262.031 87.2731 262.148 87.1735C262.413 86.9608 262.543 86.6783 262.543 86.3294C262.543 85.9838 262.419 85.7213 262.168 85.5385C261.927 85.3691 261.65 85.2794 261.335 85.2661H259.512C259.134 85.2661 258.78 85.1929 258.445 85.0433C258.111 84.8939 257.82 84.6845 257.562 84.4187C257.314 84.1661 257.124 83.8704 256.983 83.5281C256.846 83.1892 256.779 82.8335 256.779 82.4614C256.779 82.0993 256.849 81.7535 256.993 81.4247C257.137 81.0989 257.334 80.8098 257.582 80.5639C257.829 80.3181 258.121 80.1254 258.455 79.9891C258.79 79.8528 259.141 79.7863 259.512 79.7863H262.914C263.162 79.7863 263.369 79.8594 263.533 80.009C263.694 80.1586 263.777 80.3645 263.777 80.6237C263.777 80.8697 263.697 81.079 263.54 81.2451C263.379 81.4213 263.185 81.5078 262.965 81.5078H259.522C259.248 81.5078 259.01 81.6108 258.806 81.81C258.612 82.0194 258.512 82.2553 258.512 82.5212C258.512 82.8202 258.616 83.0595 258.816 83.2424C259.027 83.4351 259.261 83.5347 259.522 83.5347H261.492C261.877 83.5347 262.245 83.6079 262.59 83.7575C262.938 83.9069 263.236 84.1163 263.483 84.3821C263.731 84.6413 263.925 84.9437 264.062 85.2927C264.199 85.6383 264.266 85.9971 264.266 86.3661C264.266 86.7515 264.199 87.1104 264.062 87.4527C263.925 87.7948 263.727 88.0906 263.473 88.3432C263.219 88.6091 262.918 88.8152 262.577 88.9613C262.232 89.1075 261.864 89.1807 261.472 89.1807H257.405ZM274.211 89.297C273.562 89.297 272.947 89.174 272.358 88.9281C271.769 88.6821 271.258 88.3398 270.819 87.9045C270.375 87.4692 270.027 86.9608 269.779 86.3828C269.532 85.8013 269.408 85.1899 269.408 84.5453C269.408 83.8974 269.532 83.2825 269.779 82.7012C270.027 82.1196 270.375 81.6146 270.819 81.1795C271.258 80.7442 271.77 80.4019 272.358 80.1559C272.947 79.91 273.562 79.787 274.211 79.787C274.85 79.787 275.462 79.9067 276.048 80.1527C276.633 80.3952 277.145 80.7341 277.59 81.1694C278.028 81.6048 278.373 82.1099 278.623 82.6879C278.878 83.2661 279.005 83.8709 279.011 84.5088C279.011 84.7413 278.935 84.9374 278.777 85.0937C278.62 85.2465 278.416 85.3261 278.169 85.3261H271.328C271.401 85.6552 271.525 85.961 271.699 86.24C271.876 86.5192 272.094 86.7652 272.348 86.9811C272.609 87.1938 272.897 87.3599 273.214 87.4728C273.532 87.5859 273.863 87.6424 274.211 87.6424C274.536 87.6424 274.813 87.6125 275.038 87.5559C275.262 87.4962 275.489 87.3998 275.72 87.2636C275.901 87.1605 276.075 87.1073 276.239 87.1073C276.459 87.1073 276.66 87.1938 276.837 87.3698C276.914 87.4531 276.978 87.5527 277.021 87.6623C277.068 87.772 277.092 87.8849 277.092 88.0047C277.092 88.4 276.804 88.7157 276.228 88.9583C275.968 89.0679 275.663 89.151 275.312 89.2109C274.964 89.2673 274.596 89.2974 274.211 89.2974V89.297ZM277.239 83.884C277.178 83.5417 277.061 83.2194 276.884 82.917C276.71 82.6145 276.486 82.3521 276.218 82.1327C275.951 81.9101 275.646 81.7406 275.308 81.6178C274.967 81.4948 274.612 81.4315 274.238 81.4315C273.86 81.4315 273.502 81.4948 273.164 81.6178C272.829 81.7406 272.532 81.9135 272.267 82.1428C272.006 82.3621 271.792 82.6246 271.622 82.927C271.451 83.226 271.337 83.5484 271.28 83.884H277.238H277.239ZM285.465 89.1807C285.217 89.1807 285.013 89.1008 284.849 88.9379C284.665 88.7686 284.575 88.5625 284.575 88.3232V84.7611C284.575 84.0931 284.702 83.4552 284.96 82.8472C285.221 82.2424 285.579 81.7075 286.034 81.2456C286.499 80.7872 287.034 80.4283 287.636 80.1723C288.241 79.9132 288.88 79.7868 289.553 79.7868H289.603C289.89 79.7868 290.111 79.8666 290.268 80.0261C290.426 80.1823 290.503 80.3884 290.503 80.6442C290.503 80.8902 290.416 81.0928 290.245 81.2557C290.071 81.4186 289.857 81.4982 289.603 81.4982H289.553C289.114 81.4982 288.7 81.5847 288.308 81.7541C287.917 81.9202 287.569 82.1563 287.268 82.4553C286.963 82.7577 286.722 83.1099 286.555 83.5054C286.385 83.9008 286.298 84.3195 286.298 84.7614V88.3236C286.298 88.5696 286.217 88.7756 286.06 88.9383C285.899 89.1012 285.702 89.181 285.465 89.181L285.465 89.1807ZM299.555 89.2305C299.348 89.2305 299.174 89.1807 299.037 89.0843C298.9 88.9845 298.799 88.8583 298.732 88.7021L295.478 81.063C295.427 80.9432 295.4 80.8204 295.4 80.6908C295.4 80.4648 295.484 80.2654 295.651 80.0926C295.819 79.9199 296.026 79.8334 296.274 79.8334C296.438 79.8334 296.588 79.8799 296.729 79.9729C296.869 80.0626 296.976 80.1922 297.046 80.3618L299.535 86.3197L302.007 80.3618C302.077 80.2055 302.188 80.0793 302.335 79.9862C302.482 79.8932 302.636 79.8434 302.8 79.8434C303.027 79.8434 303.232 79.9332 303.409 80.1092C303.576 80.2753 303.663 80.4747 303.663 80.7007C303.67 80.8005 303.643 80.92 303.583 81.063L300.331 88.7021C300.244 88.865 300.137 88.9946 300.007 89.0875C299.876 89.1807 299.726 89.2305 299.555 89.2305ZM310.227 78.6372C309.956 78.6372 309.725 78.5409 309.528 78.3449C309.334 78.1522 309.237 77.9229 309.237 77.6637C309.237 77.3978 309.334 77.1685 309.528 76.9724C309.718 76.7831 309.952 76.6899 310.227 76.6899C310.488 76.6899 310.719 76.7831 310.923 76.9724C311.117 77.1552 311.214 77.3845 311.214 77.6637C311.214 77.9361 311.117 78.1655 310.923 78.3449C310.712 78.5409 310.481 78.6372 310.227 78.6372ZM310.227 89.2504C309.983 89.2504 309.775 89.1674 309.605 89.0012C309.431 88.8349 309.344 88.6323 309.344 88.393V80.6541C309.344 80.4049 309.431 80.2023 309.608 80.0394C309.778 79.8701 309.986 79.7868 310.234 79.7868C310.471 79.7868 310.668 79.8701 310.832 80.0394C310.996 80.209 311.077 80.4116 311.077 80.6541V88.393C311.077 88.6323 310.996 88.8349 310.829 89.0012C310.662 89.1674 310.461 89.2504 310.227 89.2504ZM321.597 89.2869C320.945 89.2869 320.326 89.1674 319.741 88.9281C319.156 88.6888 318.644 88.3531 318.199 87.9245C317.754 87.4892 317.406 86.9874 317.159 86.416C316.911 85.8445 316.787 85.2363 316.787 84.5951C316.787 83.9405 316.911 83.3191 317.155 82.7311C317.399 82.143 317.744 81.6311 318.189 81.1894C318.627 80.7474 319.139 80.4019 319.728 80.1559C320.317 79.91 320.939 79.787 321.597 79.787C322.226 79.787 322.822 79.8967 323.387 80.116C323.952 80.3388 324.441 80.6543 324.852 81.0631C325.063 81.2891 325.167 81.525 325.167 81.7742C325.167 82.0202 325.066 82.2262 324.862 82.3957C324.779 82.4655 324.682 82.522 324.578 82.5619C324.474 82.5984 324.377 82.6183 324.294 82.6183C324.15 82.6183 324.013 82.5851 323.882 82.5119L323.196 82.0268C322.915 81.844 322.634 81.7178 322.357 81.6446C322.079 81.5748 321.774 81.5383 321.443 81.5383C321.042 81.5516 320.667 81.6413 320.316 81.8075C319.961 81.9736 319.654 82.1929 319.393 82.4722C319.132 82.7512 318.928 83.0703 318.78 83.4292C318.633 83.7846 318.56 84.1536 318.56 84.539C318.56 84.9279 318.633 85.3033 318.78 85.6656C318.928 86.0311 319.135 86.3468 319.403 86.6192C319.677 86.9117 319.995 87.1409 320.353 87.3038C320.714 87.4633 321.102 87.5464 321.52 87.5464C321.841 87.5464 322.136 87.5099 322.403 87.4401C322.671 87.3669 322.935 87.2407 323.196 87.0579L323.882 86.5827C324.026 86.5029 324.166 86.4664 324.304 86.4664C324.387 86.4664 324.484 86.4831 324.588 86.5228C324.692 86.5627 324.785 86.616 324.862 86.689C325.06 86.8718 325.157 87.0778 325.157 87.3105C325.157 87.4367 325.13 87.5597 325.076 87.6859C325.026 87.8123 324.949 87.9252 324.852 88.0216C324.447 88.4236 323.959 88.736 323.394 88.9586C322.825 89.178 322.226 89.2876 321.597 89.2876V89.2869ZM335.199 89.297C334.55 89.297 333.935 89.174 333.346 88.9281C332.758 88.6821 332.246 88.3398 331.808 87.9045C331.363 87.4692 331.015 86.9608 330.767 86.3828C330.52 85.8013 330.396 85.1899 330.396 84.5453C330.396 83.8974 330.52 83.2825 330.767 82.7012C331.015 82.1196 331.363 81.6146 331.808 81.1795C332.246 80.7442 332.758 80.4019 333.346 80.1559C333.935 79.91 334.551 79.787 335.199 79.787C335.838 79.787 336.451 79.9067 337.036 80.1527C337.621 80.3952 338.133 80.7341 338.578 81.1694C339.016 81.6048 339.361 82.1099 339.612 82.6879C339.866 83.2661 339.993 83.8709 340 84.5088C340 84.7413 339.923 84.9374 339.765 85.0937C339.608 85.2465 339.404 85.3261 339.157 85.3261H332.316C332.389 85.6552 332.513 85.961 332.687 86.24C332.864 86.5192 333.082 86.7652 333.336 86.9811C333.597 87.1938 333.885 87.3599 334.202 87.4728C334.52 87.5859 334.852 87.6424 335.199 87.6424C335.524 87.6424 335.802 87.6125 336.026 87.5559C336.25 87.4962 336.477 87.3998 336.708 87.2636C336.889 87.1605 337.063 87.1073 337.227 87.1073C337.448 87.1073 337.648 87.1938 337.826 87.3698C337.902 87.4531 337.966 87.5527 338.01 87.6623C338.056 87.772 338.08 87.8849 338.08 88.0047C338.08 88.4 337.792 88.7157 337.217 88.9583C336.956 89.0679 336.651 89.151 336.3 89.2109C335.952 89.2673 335.584 89.2974 335.199 89.2974V89.297ZM338.227 83.884C338.167 83.5417 338.05 83.2194 337.872 82.917C337.698 82.6145 337.474 82.3521 337.207 82.1327C336.939 81.9101 336.634 81.7406 336.296 81.6178C335.955 81.4948 335.601 81.4315 335.226 81.4315C334.848 81.4315 334.49 81.4948 334.152 81.6178C333.818 81.7406 333.52 81.9135 333.256 82.1428C332.995 82.3621 332.781 82.6246 332.61 82.927C332.439 83.226 332.326 83.5484 332.269 83.884H338.226H338.227Z" fill="#EF7F1A"/>
<path d="M235.763 46.5674C234.778 46.5674 233.946 46.9052 233.266 47.5805C232.586 48.256 232.246 49.0826 232.246 50.0607V57.0475H249.83V50.0607C249.83 49.0826 249.49 48.256 248.81 47.5805C248.13 46.9052 247.298 46.5674 246.313 46.5674H235.763ZM253.347 67.5273H249.83V60.5407H232.246V67.5273H228.729V50.0607C228.729 49.1292 228.911 48.2443 229.274 47.4059C229.638 46.5674 230.136 45.8281 230.769 45.1877C231.402 44.5472 232.146 44.0348 233.002 43.6506C233.858 43.2664 234.778 43.0742 235.763 43.0742H246.313C247.251 43.0742 248.142 43.2547 248.986 43.6157C249.83 43.9768 250.568 44.4717 251.201 45.1003C251.834 45.7292 252.344 46.4687 252.731 47.3185C253.118 48.1686 253.323 49.0826 253.346 50.0607V67.5273H253.347ZM277.964 50.0607C277.964 49.0826 277.624 48.256 276.944 47.5805C276.264 46.9052 275.432 46.5674 274.447 46.5674H260.38V57.0473H274.447C275.432 57.0473 276.264 56.7095 276.944 56.034C277.624 55.3587 277.964 54.5321 277.964 53.5538V50.0605V50.0607ZM278.984 67.5273L271.95 60.5407H260.38V67.5273H256.863V43.0742H274.447C275.361 43.0742 276.246 43.2547 277.102 43.6157C277.958 43.9768 278.708 44.4717 279.353 45.1003C279.998 45.7292 280.514 46.4687 280.9 47.3185C281.287 48.1686 281.48 49.0826 281.48 50.0607V53.554C281.48 54.2994 281.363 55.0153 281.129 55.7025C280.894 56.3895 280.56 57.0241 280.126 57.6061C279.693 58.1885 279.177 58.7066 278.579 59.1606C277.981 59.6147 277.319 59.9583 276.592 60.1911L281.48 65.0469V67.5271H278.984L278.984 67.5273ZM294.844 53.554H308.911V60.5408C308.911 61.4723 308.729 62.3573 308.366 63.1956C308.003 64.0342 307.504 64.7735 306.872 65.4139C306.239 66.0543 305.494 66.5667 304.639 66.9509C303.783 67.3351 302.863 67.5273 301.878 67.5273H291.328C290.39 67.5273 289.493 67.3468 288.637 66.9858C287.782 66.6248 287.031 66.1298 286.387 65.5013C285.742 64.8723 285.232 64.1329 284.857 63.283C284.482 62.4329 284.294 61.5189 284.294 60.5408V50.0609C284.294 49.1294 284.476 48.2444 284.839 47.4061C285.203 46.5675 285.701 45.8282 286.334 45.1878C286.967 44.5474 287.711 44.035 288.567 43.6508C289.423 43.2666 290.343 43.0744 291.328 43.0744H301.878C302.816 43.0744 303.706 43.2549 304.551 43.6159C305.395 43.9769 306.133 44.4719 306.766 45.1005C307.399 45.7294 307.909 46.4688 308.296 47.3187C308.683 48.1688 308.888 49.0828 308.911 50.0609H305.394C305.394 49.0828 305.054 48.2561 304.374 47.5807C303.695 46.9054 302.862 46.5675 301.878 46.5675H291.327C290.343 46.5675 289.511 46.9054 288.831 47.5807C288.151 48.2561 287.811 49.0828 287.811 50.0609V60.5408C287.811 61.5189 288.151 62.3456 288.831 63.021C289.511 63.6963 290.343 64.0342 291.327 64.0342H301.878C302.862 64.0342 303.695 63.6963 304.374 63.021C305.054 62.3456 305.394 61.5189 305.394 60.5408V57.0475H294.844V53.554ZM315.593 53.554H333.177V57.0475H315.593V64.0342H336.694V67.5275H312.076V43.0744H336.694V46.5677H315.593V53.5544V53.554Z" fill="#F1F1F1"/>
<path fill-rule="evenodd" clip-rule="evenodd" d="M200.295 67.521L225.84 67.5271C225.344 66.5629 224.662 66.845 223.32 66.845C215.941 66.845 208.288 66.9257 200.977 66.8419V27.9857C200.977 26.8816 201.107 26.3611 200.3 26.0001L200.295 67.521Z" fill="white"/>
<path fill-rule="evenodd" clip-rule="evenodd" d="M202.321 65.4826L223.812 65.512C223.397 64.683 222.923 64.831 221.86 64.8312H203.035C202.894 63.9218 203.001 38.8738 203.002 36.6908C203.003 36.1255 203.114 28.8643 202.92 28.5299C202.855 28.417 202.512 28.0783 202.316 28.0276L202.321 65.4826Z" fill="white"/>
<path fill-rule="evenodd" clip-rule="evenodd" d="M204.353 63.4752L221.786 63.4958C221.688 63.297 221.496 63.0683 221.305 62.9324C221.05 62.7513 220.716 62.8159 220.314 62.818L209.402 62.8189C208.058 62.8189 206.334 62.9117 205.036 62.7995C205.056 52.4148 204.961 41.8493 205.038 31.4846C205.044 30.6086 205.048 30.3869 204.349 30.0319L204.353 63.4752Z" fill="white"/>
<path fill-rule="evenodd" clip-rule="evenodd" d="M206.373 61.488L219.743 61.4881C219.621 61.226 219.755 61.452 219.584 61.23C219.076 60.5709 218.664 60.7979 217.134 60.7979L207.064 60.7967C207.097 51.6988 206.973 42.336 207.066 33.2739C207.071 32.7816 207.074 32.374 206.364 32.0387L206.373 61.488Z" fill="white"/>
<path d="M134.659 60.5407C134.659 61.4721 134.477 62.3571 134.114 63.1954C133.75 64.034 133.252 64.7733 132.619 65.4137C131.986 66.0541 131.242 66.5665 130.386 66.9507C129.53 67.3349 128.61 67.5271 127.625 67.5271H117.075C116.114 67.5271 115.211 67.3466 114.367 66.9856C113.523 66.6246 112.785 66.1296 112.152 65.5011C111.519 64.8722 111.015 64.1327 110.64 63.2828C110.264 62.4328 110.065 61.5187 110.042 60.5407H113.559C113.559 61.5187 113.899 62.3454 114.579 63.0209C115.258 63.6962 116.091 64.034 117.075 64.034H127.626C128.61 64.034 129.442 63.6962 130.122 63.0209C130.802 62.3454 131.142 61.5187 131.142 60.5407C131.142 59.5624 130.802 58.7357 130.122 58.0604C129.442 57.385 128.61 57.0473 127.626 57.0473H117.075C116.138 57.0473 115.241 56.8668 114.385 56.5058C113.529 56.1448 112.779 55.6498 112.134 55.0213C111.49 54.3924 110.98 53.6529 110.605 52.803C110.23 51.953 110.042 51.0389 110.042 50.0607C110.042 49.1292 110.224 48.2443 110.587 47.4059C110.95 46.5674 111.449 45.8281 112.082 45.1877C112.715 44.5472 113.459 44.0348 114.315 43.6506C115.171 43.2664 116.091 43.0742 117.075 43.0742H127.626C128.564 43.0742 129.454 43.2547 130.298 43.6157C131.142 43.9768 131.881 44.4717 132.514 45.1003C133.147 45.7292 133.657 46.4687 134.044 47.3185C134.43 48.1686 134.635 49.0826 134.659 50.0607H131.142C131.142 49.0826 130.802 48.256 130.122 47.5805C129.442 46.9052 128.61 46.5674 127.625 46.5674H117.075C116.09 46.5674 115.258 46.9052 114.578 47.5805C113.898 48.256 113.558 49.0826 113.558 50.0607C113.558 51.0389 113.898 51.8656 114.578 52.5409C115.258 53.2164 116.09 53.554 117.075 53.554H127.625C128.54 53.554 129.425 53.7345 130.28 54.0955C131.136 54.4566 131.886 54.9515 132.531 55.5801C133.176 56.209 133.692 56.9484 134.079 57.7983C134.465 58.6484 134.659 59.5624 134.659 60.5407ZM144.857 46.5674C143.872 46.5674 143.04 46.9052 142.36 47.5805C141.68 48.256 141.341 49.0826 141.341 50.0607V57.0475H158.924V50.0607C158.924 49.0826 158.584 48.256 157.904 47.5805C157.224 46.9052 156.392 46.5674 155.407 46.5674H144.857ZM162.441 67.5273H158.924V60.5407H141.341V67.5273H137.824V50.0607C137.824 49.1292 138.005 48.2443 138.369 47.4059C138.732 46.5674 139.23 45.8281 139.863 45.1877C140.496 44.5472 141.241 44.0348 142.097 43.6506C142.952 43.2664 143.872 43.0742 144.857 43.0742H155.407C156.345 43.0742 157.236 43.2547 158.08 43.6157C158.924 43.9768 159.663 44.4717 160.295 45.1003C160.929 45.7292 161.438 46.4687 161.825 47.3185C162.212 48.1686 162.417 49.0826 162.441 50.0607V67.5273H162.441ZM169.475 49.3271V67.5273H165.958V43.0742H169.475L180.025 58.2003L190.575 43.0742H194.092V67.5273H190.575V49.3271L180.025 64.4531L169.475 49.3271Z" fill="#F1F1F1"/>
<path fill-rule="evenodd" clip-rule="evenodd" d="M102.067 42.2092H105.02V94.9999H102.067V42.2092Z" fill="#F1F1F1"/>
</g>
<defs>
<radialGradient id="paint0_radial" cx="0" cy="0" r="1" gradientUnits="userSpaceOnUse" gradientTransform="translate(69 69) rotate(90) scale(274.5)">
<stop stop-color="#EF7F1A" stop-opacity="0"/>
<stop offset="0.341182" stop-color="#EF7F1A" stop-opacity="0.12"/>
<stop offset="1" stop-color="#EF7F1A"/>
</radialGradient>
<clipPath id="clip0">
<rect width="297" height="69" fill="white" transform="translate(43 26)"/>
</clipPath>
</defs>
</svg>
