<svg width="25" height="25" viewBox="0 0 25 25" fill="none" xmlns="http://www.w3.org/2000/svg">
<path d="M17.552 0H7.44678C5.47227 0.0023204 3.57931 0.787807 2.18323 2.18412C0.787156 3.58043 0.00198841 5.47352 0 7.44803V17.5532C0.0023204 19.5277 0.787807 21.4207 2.18412 22.8168C3.58043 24.2128 5.47352 24.998 7.44803 25H17.5532C19.5277 24.9977 21.4207 24.2122 22.8168 22.8159C24.2128 21.4196 24.998 19.5265 25 17.552V7.44678C24.9977 5.47227 24.2122 3.57931 22.8159 2.18323C21.4196 0.787156 19.5265 0.00198841 17.552 0ZM22.4856 17.552C22.4856 18.1999 22.358 18.8414 22.11 19.44C21.8621 20.0386 21.4987 20.5824 21.0406 21.0406C20.5824 21.4987 20.0386 21.8621 19.44 22.11C18.8414 22.358 18.1999 22.4856 17.552 22.4856H7.44678C6.13852 22.4853 4.88395 21.9653 3.95899 21.0401C3.03402 20.1149 2.5144 18.8602 2.5144 17.552V7.44678C2.51473 6.13852 3.03467 4.88395 3.95987 3.95899C4.88507 3.03402 6.13977 2.5144 7.44803 2.5144H17.5532C18.8615 2.51473 20.116 3.03467 21.041 3.95987C21.966 4.88507 22.4856 6.13977 22.4856 7.44803V17.552Z" fill="#EF7F1A"/>
<path d="M12.4994 6.03431C10.7857 6.03696 9.14291 6.71899 7.93125 7.93089C6.71959 9.14278 6.03788 10.7857 6.03556 12.4994C6.03755 14.2135 6.71929 15.8569 7.93125 17.0691C9.14322 18.2813 10.7865 18.9634 12.5006 18.9657C14.215 18.9637 15.8586 18.2818 17.0708 17.0696C18.283 15.8573 18.965 14.2137 18.9669 12.4994C18.9643 10.7852 18.2819 9.1421 17.0695 7.93037C15.857 6.71864 14.2135 6.03722 12.4994 6.03556V6.03431ZM12.4994 16.4513C11.4516 16.4513 10.4467 16.0351 9.70583 15.2942C8.96494 14.5533 8.54871 13.5484 8.54871 12.5006C8.54871 11.4528 8.96494 10.448 9.70583 9.70708C10.4467 8.96619 11.4516 8.54996 12.4994 8.54996C13.5472 8.54996 14.552 8.96619 15.2929 9.70708C16.0338 10.448 16.45 11.4528 16.45 12.5006C16.45 13.5484 16.0338 14.5533 15.2929 15.2942C14.552 16.0351 13.5472 16.4513 12.4994 16.4513Z" fill="#EF7F1A"/>
<path d="M18.9782 7.63211C19.8337 7.63211 20.5272 6.93861 20.5272 6.08315C20.5272 5.22768 19.8337 4.53418 18.9782 4.53418C18.1227 4.53418 17.4293 5.22768 17.4293 6.08315C17.4293 6.93861 18.1227 7.63211 18.9782 7.63211Z" fill="#EF7F1A"/>
</svg>
