<svg width="25" height="53" viewBox="0 0 25 53" fill="none" xmlns="http://www.w3.org/2000/svg">
<path d="M18.7518 22.1689C15.8438 11.7919 29.0918 7.57932 22.7698 2.50218C16.4448 -2.57616 11.9408 4.45999 6.95881 13.6024C1.97781 22.7449 3.06281 34.2726 9.38881 39.3521C15.7118 44.4293 22.5998 35.9011 18.7518 22.1689Z" fill="white"/>
<path d="M11.7638 47.1187C11.3558 49.8645 12.6828 51.5397 14.5648 51.9516C16.4468 52.3635 18.1708 51.3553 18.5778 48.6095C19.1608 44.6795 17.9218 42.4164 16.0398 42.0045C14.1578 41.5914 12.3458 43.1887 11.7638 47.1187Z" fill="white"/>
<path d="M6.25086 44.4868C5.70986 46.3835 6.49886 47.7522 7.79886 48.297C9.09787 48.8442 10.4139 48.3605 10.9549 46.4625C11.7279 43.7515 11.0559 41.9745 9.75687 41.4297C8.45786 40.8849 7.02286 41.7746 6.25086 44.4868Z" fill="white"/>
<path d="M2.56778 40.1437C1.92578 41.7219 2.48978 43.0175 3.56978 43.6653C4.65178 44.3131 5.84078 44.0701 6.48379 42.4918C7.40279 40.2347 6.97779 38.6026 5.89678 37.9523C4.81678 37.3045 3.48778 37.8877 2.56778 40.1437Z" fill="white"/>
<path d="M1.02475 34.9312C0.39475 36.058 0.713746 37.1249 1.48775 37.7583C2.25975 38.3942 3.19275 38.3595 3.82275 37.2327C4.72175 35.6209 4.53875 34.3133 3.76475 33.6775C2.99375 33.0416 1.92475 33.3194 1.02475 34.9312Z" fill="white"/>
<path d="M0.266794 30.5342C-0.236206 31.4347 0.0197959 32.2861 0.636796 32.7938C1.2548 33.3015 1.99779 33.2727 2.5028 32.3723C3.2218 31.0838 3.0728 30.0421 2.4568 29.5319C1.8408 29.0242 0.985794 29.247 0.266794 30.5342Z" fill="white"/>
</svg>
